<svg class="fest-svg" viewBox="0 0 230 290" xmlns="http://www.w3.org/2000/svg">
    <g class="fest-svg__marker" transform="translate(115,268) scale(1.3,1)">
        <path fill="currentColor" d="M137,268c0,12.15-9.85,22-22,22s-22-9.85-22-22s9.85-22,22-22s22,9.85,22,22Z" transform="translate(-115,-268)"/>
    </g>
    <g class="fest-svg__marker-background" transform="translate(115.337811,268.814498)">
        <g transform="scale(0.6,0.6)">
            <path d="M196.54245,231.60471l-.696.634c-2.461,2.453-5.033,4.795-7.706,7.019l-68.799,62.664c-2.62,2.644-6.206,2.624-8.846,0l-67.8717-61.901c-29.51482-32.54165-42.7053-53.60232-42.7053-89.94732c0-63.9025,51.48715-115.74768,115-115.74768s115,49.97418,115,113.87668c0,31.828-12.772,62.48332-33.441,83.40232h.065Z" transform="translate(-115.51568,-303.233311)" fill="#fff" stroke-linejoin="bevel"/>
        </g>
    </g>
    <g class="fest-svg__background" transform="translate(115,189.975)">
        <path fill="currentColor" d="M15,115C15,59.7715,59.7715,15,115,15c55.228,0,100,44.7715,100,100c0,55.228-44.772,100-100,100-55.2285,0-100-44.772-100-100Z" transform="translate(-115,-115)"/>
    </g>
    <g class="fest-svg__icon" transform="translate(115,190.60672)">
        <g transform="translate(-115,-113.820999)">
            <path d="M64.6652 103.429C72.2483 103.429 78.3933 97.7987 78.3933 90.8488L89.375 55.625H72.9021L50.9375 90.8488C50.9375 97.7977 57.081 103.429 64.6652 103.429Z" fill="white"/>
            <path d="M98.1829 103.427C105.703 103.427 111.797 97.7965 111.797 90.8464V55.625H95.4608L84.5704 90.8498C84.5704 97.7976 90.6632 103.429 98.1829 103.429V103.427Z" fill="white"/>
            <path d="M165.334 103.429C172.918 103.429 179.063 97.7987 179.063 90.8488L157.098 55.625H140.625L151.607 90.8488C151.608 97.7977 157.751 103.429 165.334 103.429Z" fill="white"/>
            <path d="M131.816 103.429C139.336 103.429 145.43 97.7987 145.43 90.8488L134.539 55.625H118.203V90.8488C118.203 97.7977 124.296 103.429 131.816 103.429Z" fill="white"/>
            <path d="M169.207 110.136C167.896 110.444 166.542 110.637 165.135 110.637C158.01 110.637 151.827 106.763 148.429 101.06C145.031 106.762 138.837 110.636 131.711 110.636C124.586 110.636 118.391 106.768 115 101.07C111.602 106.768 105.419 110.636 98.2878 110.636C91.1582 110.636 84.9678 106.762 81.57 101.058C78.1735 106.762 71.995 110.636 64.8654 110.636C63.4579 110.636 62.1055 110.442 60.7933 110.134V171.375C60.7933 173.032 62.1365 174.375 63.7933 174.375H98.5738V136.441C98.5738 132.797 101.516 129.844 105.144 129.844H124.856C128.485 129.844 131.426 132.797 131.426 136.441V174.375L166.207 174.375C167.864 174.375 169.207 173.032 169.207 171.375V110.136Z" fill="white"/>
        </g>
    </g>
</svg>
