<svg class="fest-svg" width="230" height="290" viewBox="0 0 230 290" fill="none" xmlns="http://www.w3.org/2000/svg">
<path class="fest-svg__marker" d="M137 268C137 280.15 127.15 290 115 290C102.85 290 93 280.15 93 268C93 255.85 102.85 246 115 246C127.15 246 137 255.85 137 268Z" fill="currentColor"/>
<path class="fest-svg__marker-background" d="M196.559 197.279C217.228 176.36 230 147.534 230 115.706C230 51.8035 178.513 0 115 0C51.4873 0 0 51.8035 0 115.706C0 152.051 16.6552 184.483 42.7053 205.695L110.577 267.596C113.217 270.22 116.803 270.24 119.423 267.596L188.222 204.932C190.895 202.708 193.467 200.366 195.928 197.913L196.624 197.279H196.559Z" fill="white"/>
<path class="fest-svg__background" d="M15 115C15 59.7715 59.7715 15 115 15C170.228 15 215 59.7715 215 115C215 170.228 170.228 215 115 215C59.7715 215 15 170.228 15 115Z" fill="currentColor"/>
<path class="fest-svg__icon" d="M64.6652 103.429C72.2483 103.429 78.3933 97.7987 78.3933 90.8488L89.375 55.625H72.9021L50.9375 90.8488C50.9375 97.7977 57.081 103.429 64.6652 103.429Z" fill="white"/>
<path class="fest-svg__icon" d="M98.1829 103.427C105.703 103.427 111.797 97.7965 111.797 90.8464V55.625H95.4608L84.5704 90.8498C84.5704 97.7976 90.6632 103.429 98.1829 103.429V103.427Z" fill="white"/>
<path class="fest-svg__icon" d="M165.334 103.429C172.918 103.429 179.063 97.7987 179.063 90.8488L157.098 55.625H140.625L151.607 90.8488C151.608 97.7977 157.751 103.429 165.334 103.429Z" fill="white"/>
<path class="fest-svg__icon" d="M131.816 103.429C139.336 103.429 145.43 97.7987 145.43 90.8488L134.539 55.625H118.203V90.8488C118.203 97.7977 124.296 103.429 131.816 103.429Z" fill="white"/>
<path class="fest-svg__icon" d="M169.207 110.136C167.896 110.444 166.542 110.637 165.135 110.637C158.01 110.637 151.827 106.763 148.429 101.06C145.031 106.762 138.837 110.636 131.711 110.636C124.586 110.636 118.391 106.768 115 101.07C111.602 106.768 105.419 110.636 98.2878 110.636C91.1582 110.636 84.9678 106.762 81.57 101.058C78.1735 106.762 71.995 110.636 64.8654 110.636C63.4579 110.636 62.1055 110.442 60.7933 110.134V171.375C60.7933 173.032 62.1365 174.375 63.7933 174.375H98.5738V136.441C98.5738 132.797 101.516 129.844 105.144 129.844H124.856C128.485 129.844 131.426 132.797 131.426 136.441V174.375L166.207 174.375C167.864 174.375 169.207 173.032 169.207 171.375V110.136Z" fill="white"/>
</svg>
