<svg class="fest-svg" viewBox="0 0 230 290" xmlns="http://www.w3.org/2000/svg">
    <g class="fest-svg__marker" transform="translate(115,268) scale(1.3,1)">
        <path fill="currentColor" d="M137,268c0,12.15-9.85,22-22,22s-22-9.85-22-22s9.85-22,22-22s22,9.85,22,22Z" transform="translate(-115,-268)"/>
    </g>
    <g class="fest-svg__marker-background" transform="translate(115.337811,268.814498)">
        <g transform="scale(0.6,0.6)">
            <path d="M196.54245,231.60471l-.696.634c-2.461,2.453-5.033,4.795-7.706,7.019l-68.799,62.664c-2.62,2.644-6.206,2.624-8.846,0l-67.8717-61.901c-29.51482-32.54165-42.7053-53.60232-42.7053-89.94732c0-63.9025,51.48715-115.74768,115-115.74768s115,49.97418,115,113.87668c0,31.828-12.772,62.48332-33.441,83.40232h.065Z" transform="translate(-115.51568,-303.233311)" fill="#fff" stroke-linejoin="bevel"/>
        </g>
    </g>
    <g class="fest-svg__background" transform="translate(115,189.975)">
        <path fill="currentColor" d="M15,115C15,59.7715,59.7715,15,115,15c55.228,0,100,44.7715,100,100c0,55.228-44.772,100-100,100-55.2285,0-100-44.772-100-100Z" transform="translate(-115,-115)"/>
    </g>
    <g class="fest-svg__icon" transform="translate(115,190.60672)">
        <g transform="translate(-115,-113.820999)">
            <path d="M64.6652 103.429C72.2483 103.429 78.3933 97.7987 78.3933 90.8488L89.375 55.625H72.9021L50.9375 90.8488C50.9375 97.7977 57.081 103.429 64.6652 103.429Z" fill="white"/>
            <path d="M98.1829 103.427C105.703 103.427 111.797 97.7965 111.797 90.8464V55.625H95.4608L84.5704 90.8498C84.5704 97.7976 90.6632 103.429 98.1829 103.429V103.427Z" fill="white"/>
            <path d="M165.334 103.429C172.918 103.429 179.063 97.7987 179.063 90.8488L157.098 55.625H140.625L151.607 90.8488C151.608 97.7977 157.751 103.429 165.334 103.429Z" fill="white"/>
            <path d="M131.816 103.429C139.336 103.429 145.43 97.7987 145.43 90.8488L134.539 55.625H118.203V90.8488C118.203 97.7977 124.296 103.429 131.816 103.429Z" fill="white"/>
            <path d="M165.135 110.637C166.542 110.637 167.896 110.444 169.207 110.136V169.687C169.207 172.276 167.108 174.375 164.519 174.375L144.688 174.375V124.375C144.688 120.923 141.889 118.125 138.438 118.125H91.5625C88.1107 118.125 85.3125 120.923 85.3125 124.375V174.375H65.4808C62.892 174.375 60.7933 172.276 60.7933 169.687V110.134C62.1055 110.442 63.4579 110.636 64.8654 110.636C71.995 110.636 78.1735 106.762 81.57 101.058C84.9678 106.762 91.1582 110.636 98.2878 110.636C105.419 110.636 111.602 106.768 115 101.07C118.391 106.768 124.586 110.636 131.711 110.636C138.837 110.636 145.031 106.762 148.429 101.06C151.827 106.763 158.01 110.637 165.135 110.637Z" fill="white"/>
            <path d="M109.428 132.219H108.559C105.303 132.219 102.816 133.342 101.099 135.588C99.5516 137.592 98.5068 140.664 97.9643 144.803C97.8599 145.6 97.1909 146.21 96.3874 146.21H96.3055C95.4212 146.21 94.7131 145.477 94.744 144.593L95.234 130.57C95.2634 129.729 95.9538 129.062 96.7955 129.062H133.122C133.961 129.062 134.65 129.724 134.684 130.562L135.247 144.585C135.283 145.472 134.573 146.21 133.686 146.21H133.528C132.723 146.21 132.052 145.596 131.951 144.797C131.424 140.661 130.388 137.591 128.841 135.588C127.124 133.342 124.637 132.219 121.381 132.219H120.513V165.998C120.513 167.981 120.872 169.296 121.591 169.944C122.189 170.451 123.42 170.826 125.284 171.069C126.09 171.173 126.714 171.844 126.714 172.657V174.375H103.226V172.657C103.226 171.844 103.85 171.174 104.656 171.068C106.517 170.826 107.738 170.451 108.319 169.944C109.058 169.296 109.428 167.981 109.428 165.998V132.219Z" fill="white"/>
        </g>
    </g>
</svg>
