<svg class="fest-svg" viewBox="0 0 230 290" xmlns="http://www.w3.org/2000/svg">
    <g class="fest-svg__marker">
        <path fill="currentColor" d="M137,268c0,12.15-9.85,22-22,22s-22-9.85-22-22s9.85-22,22-22s22,9.85,22,22Z" transform="translate(-115,-268)"/>
    </g>
    <g class="fest-svg__marker-background">
        <g>
            <path d="M196.54245,231.60471l-.696.634c-2.461,2.453-5.033,4.795-7.706,7.019l-68.799,62.664c-2.62,2.644-6.206,2.624-8.846,0l-67.8717-61.901c-29.51482-32.54165-42.7053-53.60232-42.7053-89.94732c0-63.9025,51.48715-115.74768,115-115.74768s115,49.97418,115,113.87668c0,31.828-12.772,62.48332-33.441,83.40232h.065Z" transform="translate(-115.51568,-303.233311)" fill="#fff" stroke-linejoin="bevel"/>
        </g>
    </g>
    <g class="fest-svg__background">
        <path fill="currentColor" d="M15,115C15,59.7715,59.7715,15,115,15c55.228,0,100,44.7715,100,100c0,55.228-44.772,100-100,100-55.2285,0-100-44.772-100-100Z" transform="translate(-115,-115)"/>
    </g>
    <g class="fest-svg__icon">
        <g>
            <path fill-rule="evenodd" clip-rule="evenodd" d="M46.25 109.622C46.25 88.4298 63.4298 71.25 84.6221 71.25H172.385C175.917 71.25 178.78 74.1133 178.78 77.6453V123.868C181.767 125.763 183.75 129.099 183.75 132.898C183.75 138.8 178.966 143.584 173.064 143.584H167.93L167.886 143.584H164.442C163.465 151.477 156.734 157.587 148.576 157.587C140.418 157.587 133.687 151.477 132.709 143.584H92.4943C91.5168 151.477 84.7859 157.587 76.6279 157.587C68.4699 157.587 61.739 151.477 60.7615 143.584H52.6453C49.1133 143.584 46.25 140.721 46.25 137.188V109.622ZM122.994 80.843H142.18V106.11L122.994 106.903V80.843ZM113.401 80.843H94.2151V108.093L113.401 107.3V80.843ZM55.843 109.622C55.843 93.7279 68.7279 80.843 84.6221 80.843V108.49L55.843 109.68V109.622ZM151.773 105.714V80.843H169.187V104.993L151.773 105.714ZM84.6221 141.599C84.6221 146.014 81.043 149.593 76.6279 149.593C72.2128 149.593 68.6337 146.014 68.6337 141.599C68.6337 137.184 72.2128 133.605 76.6279 133.605C81.043 133.605 84.6221 137.184 84.6221 141.599ZM148.576 149.593C152.991 149.593 156.57 146.014 156.57 141.599C156.57 137.184 152.991 133.605 148.576 133.605C144.161 133.605 140.581 137.184 140.581 141.599C140.581 146.014 144.161 149.593 148.576 149.593Z" fill="white"/>
        </g>
    </g>
</svg>
