<svg class="fest-svg" width="230" height="290" viewBox="0 0 230 290" fill="none" xmlns="http://www.w3.org/2000/svg">
<path class="fest-svg__marker" d="M137 268C137 280.15 127.15 290 115 290C102.85 290 93 280.15 93 268C93 255.85 102.85 246 115 246C127.15 246 137 255.85 137 268Z" fill="currentColor"/>
<path class="fest-svg__marker-background" d="M196.559 197.279C217.228 176.36 230 147.534 230 115.706C230 51.8035 178.513 0 115 0C51.4873 0 0 51.8035 0 115.706C0 152.051 16.6552 184.483 42.7053 205.695L110.577 267.596C113.217 270.22 116.803 270.24 119.423 267.596L188.222 204.932C190.895 202.708 193.467 200.366 195.928 197.913L196.624 197.279H196.559Z" fill="white"/>
<path class="fest-svg__background" d="M15 115C15 59.7715 59.7715 15 115 15C170.228 15 215 59.7715 215 115C215 170.228 170.228 215 115 215C59.7715 215 15 170.228 15 115Z" fill="currentColor"/>
<path class="fest-svg__icon" fill-rule="evenodd" clip-rule="evenodd" d="M46.25 109.622C46.25 88.4298 63.4298 71.25 84.6221 71.25H172.385C175.917 71.25 178.78 74.1133 178.78 77.6453V123.868C181.767 125.763 183.75 129.099 183.75 132.898C183.75 138.8 178.966 143.584 173.064 143.584H167.93L167.886 143.584H164.442C163.465 151.477 156.734 157.587 148.576 157.587C140.418 157.587 133.687 151.477 132.709 143.584H92.4943C91.5168 151.477 84.7859 157.587 76.6279 157.587C68.4699 157.587 61.739 151.477 60.7615 143.584H52.6453C49.1133 143.584 46.25 140.721 46.25 137.188V109.622ZM122.994 80.843H142.18V106.11L122.994 106.903V80.843ZM113.401 80.843H94.2151V108.093L113.401 107.3V80.843ZM55.843 109.622C55.843 93.7279 68.7279 80.843 84.6221 80.843V108.49L55.843 109.68V109.622ZM151.773 105.714V80.843H169.187V104.993L151.773 105.714ZM84.6221 141.599C84.6221 146.014 81.043 149.593 76.6279 149.593C72.2128 149.593 68.6337 146.014 68.6337 141.599C68.6337 137.184 72.2128 133.605 76.6279 133.605C81.043 133.605 84.6221 137.184 84.6221 141.599ZM148.576 149.593C152.991 149.593 156.57 146.014 156.57 141.599C156.57 137.184 152.991 133.605 148.576 133.605C144.161 133.605 140.581 137.184 140.581 141.599C140.581 146.014 144.161 149.593 148.576 149.593Z" fill="white"/>
</svg>
