<svg class="fest-svg" viewBox="0 0 230 290" xmlns="http://www.w3.org/2000/svg">
    <g class="fest-svg__marker">
        <path fill="currentColor" d="M137,268c0,12.15-9.85,22-22,22s-22-9.85-22-22s9.85-22,22-22s22,9.85,22,22Z" transform="translate(-115,-268)"/>
    </g>
    <g class="fest-svg__marker-background">
        <g>
            <path d="M196.54245,231.60471l-.696.634c-2.461,2.453-5.033,4.795-7.706,7.019l-68.799,62.664c-2.62,2.644-6.206,2.624-8.846,0l-67.8717-61.901c-29.51482-32.54165-42.7053-53.60232-42.7053-89.94732c0-63.9025,51.48715-115.74768,115-115.74768s115,49.97418,115,113.87668c0,31.828-12.772,62.48332-33.441,83.40232h.065Z" transform="translate(-115.51568,-303.233311)" fill="#fff" stroke-linejoin="bevel"/>
        </g>
    </g>
    <g class="fest-svg__background">
        <path fill="currentColor" d="M15,115C15,59.7715,59.7715,15,115,15c55.228,0,100,44.7715,100,100c0,55.228-44.772,100-100,100-55.2285,0-100-44.772-100-100Z" transform="translate(-115,-115)"/>
    </g>
    <g class="fest-svg__icon">
        <g>
            <path fill-rule="evenodd" clip-rule="evenodd" d="M114.985 46.25C86.5686 46.25 63.4375 70.3873 63.4375 100.068C63.4375 127.001 104.773 176.225 111.86 184.665L111.861 184.667C112.36 185.26 112.689 185.652 112.822 185.82C113.356 186.494 114.143 186.875 114.987 186.875C115.831 186.875 116.617 186.494 117.151 185.82C117.284 185.652 117.614 185.259 118.114 184.663C125.21 176.218 166.562 126.998 166.562 100.068C166.562 70.3869 143.429 46.25 114.985 46.25ZM151.094 98.82C151.094 119.144 134.934 135.619 115 135.619C95.0661 135.619 78.9063 119.144 78.9063 98.82C78.9063 78.4964 95.0661 62.0209 115 62.0209C126.364 62.0209 136.501 67.3748 143.117 75.7435L116.784 99.2316C115.504 100.374 113.563 100.321 112.346 99.111L104.391 91.2043C103.059 89.8798 100.892 89.9604 99.6605 91.3803L93.8069 98.1278C92.6775 99.4297 92.7496 101.391 93.9714 102.606L109.175 117.717C111.921 120.446 116.133 120.567 119.011 118L150.112 90.2583C150.754 93.0056 151.094 95.8723 151.094 98.82Z" fill="white"/>
        </g>
    </g>
</svg>
