<svg class="fest-svg" width="230" height="290" viewBox="0 0 230 290" fill="none" xmlns="http://www.w3.org/2000/svg">
<path class="fest-svg__marker" d="M137 268C137 280.15 127.15 290 115 290C102.85 290 93 280.15 93 268C93 255.85 102.85 246 115 246C127.15 246 137 255.85 137 268Z" fill="currentColor"/>
<path class="fest-svg__marker-background" d="M196.559 197.279C217.228 176.36 230 147.534 230 115.706C230 51.8035 178.513 0 115 0C51.4873 0 0 51.8035 0 115.706C0 152.051 16.6552 184.483 42.7053 205.695L110.577 267.596C113.217 270.22 116.803 270.24 119.423 267.596L188.222 204.932C190.895 202.708 193.467 200.366 195.928 197.913L196.624 197.279H196.559Z" fill="white"/>
<path class="fest-svg__background" d="M15 115C15 59.7715 59.7715 15 115 15C170.228 15 215 59.7715 215 115C215 170.228 170.228 215 115 215C59.7715 215 15 170.228 15 115Z" fill="currentColor"/>
<path class="fest-svg__icon" fill-rule="evenodd" clip-rule="evenodd" d="M114.985 46.25C86.5686 46.25 63.4375 70.3873 63.4375 100.068C63.4375 127.001 104.773 176.225 111.86 184.665L111.861 184.667C112.36 185.26 112.689 185.652 112.822 185.82C113.356 186.494 114.143 186.875 114.987 186.875C115.831 186.875 116.617 186.494 117.151 185.82C117.284 185.652 117.614 185.259 118.114 184.663C125.21 176.218 166.562 126.998 166.562 100.068C166.562 70.3869 143.429 46.25 114.985 46.25ZM151.094 98.82C151.094 119.144 134.934 135.619 115 135.619C95.0661 135.619 78.9063 119.144 78.9063 98.82C78.9063 78.4964 95.0661 62.0209 115 62.0209C126.364 62.0209 136.501 67.3748 143.117 75.7435L116.784 99.2316C115.504 100.374 113.563 100.321 112.346 99.111L104.391 91.2043C103.059 89.8798 100.892 89.9604 99.6605 91.3803L93.8069 98.1278C92.6775 99.4297 92.7496 101.391 93.9714 102.606L109.175 117.717C111.921 120.446 116.133 120.567 119.011 118L150.112 90.2583C150.754 93.0056 151.094 95.8723 151.094 98.82Z" fill="white"/>
</svg>
