<svg class="fest-svg" viewBox="0 0 230 290" xmlns="http://www.w3.org/2000/svg">
    <g class="fest-svg__marker" transform="translate(115,268) scale(1.3,1)">
        <path fill="#ADB4B7" d="M137,268c0,12.15-9.85,22-22,22s-22-9.85-22-22s9.85-22,22-22s22,9.85,22,22Z" transform="translate(-115,-268)"/>
    </g>
    <g class="fest-svg__marker-background" transform="translate(115.337811,268.814498)">
        <g transform="scale(0.6,0.6)">
            <path d="M196.54245,231.60471l-.696.634c-2.461,2.453-5.033,4.795-7.706,7.019l-68.799,62.664c-2.62,2.644-6.206,2.624-8.846,0l-67.8717-61.901c-29.51482-32.54165-42.7053-53.60232-42.7053-89.94732c0-63.9025,51.48715-115.74768,115-115.74768s115,49.97418,115,113.87668c0,31.828-12.772,62.48332-33.441,83.40232h.065Z" transform="translate(-115.51568,-303.233311)" fill="#fff" stroke-linejoin="bevel"/>
        </g>
    </g>
    <g class="fest-svg__background" transform="translate(115,189.975)">
        <path fill="#ADB4B7" d="M15,115C15,59.7715,59.7715,15,115,15c55.228,0,100,44.7715,100,100c0,55.228-44.772,100-100,100-55.2285,0-100-44.772-100-100Z" transform="translate(-115,-115)"/>
    </g>
    <g class="fest-svg__icon" transform="translate(115,190.60672)">
        <g transform="translate(-115,-113.820999)">
            <path fill-rule="evenodd" clip-rule="evenodd" d="M115 179.062C150.381 179.062 179.062 150.381 179.062 115C179.062 79.6193 150.381 50.9375 115 50.9375C79.6193 50.9375 50.9375 79.6193 50.9375 115C50.9375 150.381 79.6193 179.062 115 179.062ZM94.6875 115C94.6875 121.041 89.7906 125.938 83.75 125.938C77.7094 125.938 72.8125 121.041 72.8125 115C72.8125 108.959 77.7094 104.062 83.75 104.062C89.7906 104.062 94.6875 108.959 94.6875 115ZM125.938 115C125.938 121.041 121.041 125.938 115 125.938C108.959 125.938 104.062 121.041 104.062 115C104.062 108.959 108.959 104.062 115 104.062C121.041 104.062 125.938 108.959 125.938 115ZM146.25 125.938C152.291 125.938 157.188 121.041 157.188 115C157.188 108.959 152.291 104.062 146.25 104.062C140.209 104.062 135.312 108.959 135.312 115C135.312 121.041 140.209 125.938 146.25 125.938Z" fill="white"/>
        </g>
    </g>
</svg>
