<svg class="fest-svg" width="230" height="290" viewBox="0 0 230 290" fill="none" xmlns="http://www.w3.org/2000/svg">
<path class="fest-svg__marker" d="M137 268C137 280.15 127.15 290 115 290C102.85 290 93 280.15 93 268C93 255.85 102.85 246 115 246C127.15 246 137 255.85 137 268Z" fill="currentColor"/>
<path class="fest-svg__marker-background" d="M196.559 197.279C217.228 176.36 230 147.534 230 115.706C230 51.8035 178.513 0 115 0C51.4873 0 0 51.8035 0 115.706C0 152.051 16.6552 184.483 42.7053 205.695L110.577 267.596C113.217 270.22 116.803 270.24 119.423 267.596L188.222 204.932C190.895 202.708 193.467 200.366 195.928 197.913L196.624 197.279H196.559Z" fill="white"/>
<path class="fest-svg__background" d="M15 115C15 59.7715 59.7715 15 115 15C170.228 15 215 59.7715 215 115C215 170.228 170.228 215 115 215C59.7715 215 15 170.228 15 115Z" fill="currentColor"/>
<path class="fest-svg__icon" d="M149.468 47.9208C145.598 47.9208 142.104 49.4594 139.082 52.4931C124.237 67.3929 124.662 117.952 124.762 123.666L124.802 126.046C124.818 127.023 125.623 127.807 126.611 127.807H142.881V177.712C142.881 181.028 145.595 182.187 148.309 182.187C151.023 182.187 153.734 181.028 153.734 177.712V52.1323C153.734 49.8059 151.824 47.9208 149.468 47.9208Z" fill="white"/>
<path class="fest-svg__icon" d="M112.119 84.2718L110.927 51.0578C110.927 49.2188 109.411 47.8125 107.57 47.8125C105.729 47.8125 104.321 49.4357 104.321 51.1663L105.512 84.0586C105.512 85.2489 105.079 86.2221 104.321 86.9795C103.563 87.7368 102.48 88.1697 101.397 88.1697C99.1224 88.1697 97.2812 86.3306 97.2812 84.0585L97.279 51.1665C97.279 49.3274 95.8713 47.9212 94.0302 47.9212C92.1891 47.9212 90.7813 49.4358 90.7813 51.1665V84.0585C90.7813 86.3305 88.9403 88.1697 86.6657 88.1697C85.4742 88.1697 84.4999 87.7368 83.7418 86.9795C82.9837 86.2221 82.5502 85.1404 82.5502 84.0586L83.7418 51.2748C83.7418 49.4357 82.3341 47.921 80.493 47.921C78.6518 47.921 77.1356 49.3271 77.1356 51.1663L75.9429 84.1636C75.9429 88.3833 75.8343 92.6027 76.5924 96.7139C77.0258 99.0944 77.8926 101.691 79.3002 103.747C80.9252 106.128 83.4159 107.318 86.1237 108.075L88.6025 108.788L84.6073 172.125C84.3912 174.722 85.3654 177.318 87.0978 179.158C88.8303 181.106 91.4307 182.188 94.0299 182.188C96.6291 182.188 99.1209 181.106 100.962 179.158C102.694 177.211 103.67 174.723 103.452 172.125L99.4583 108.788L101.936 108.075C104.644 107.318 107.027 106.128 108.76 103.747C110.167 101.691 111.034 99.203 111.467 96.7139C112.225 92.7112 112.119 88.383 112.119 84.2718Z" fill="white"/>
</svg>
