<svg class="fest-svg" viewBox="0 0 230 290" xmlns="http://www.w3.org/2000/svg">
    <g class="fest-svg__marker">
        <path fill="currentColor" d="M137,268c0,12.15-9.85,22-22,22s-22-9.85-22-22s9.85-22,22-22s22,9.85,22,22Z" transform="translate(-115,-268)"/>
    </g>
    <g class="fest-svg__marker-background">
        <g>
            <path d="M196.54245,231.60471l-.696.634c-2.461,2.453-5.033,4.795-7.706,7.019l-68.799,62.664c-2.62,2.644-6.206,2.624-8.846,0l-67.8717-61.901c-29.51482-32.54165-42.7053-53.60232-42.7053-89.94732c0-63.9025,51.48715-115.74768,115-115.74768s115,49.97418,115,113.87668c0,31.828-12.772,62.48332-33.441,83.40232h.065Z" transform="translate(-115.51568,-303.233311)" fill="#fff" stroke-linejoin="bevel"/>
        </g>
    </g>
    <g class="fest-svg__background">
        <path fill="currentColor" d="M15,115C15,59.7715,59.7715,15,115,15c55.228,0,100,44.7715,100,100c0,55.228-44.772,100-100,100-55.2285,0-100-44.772-100-100Z" transform="translate(-115,-115)"/>
    </g>
    <g class="fest-svg__icon">
        <g>
            <path d="M149.468 47.9208C145.598 47.9208 142.104 49.4594 139.082 52.4931C124.237 67.3929 124.662 117.952 124.762 123.666L124.802 126.046C124.818 127.023 125.623 127.807 126.611 127.807H142.881V177.712C142.881 181.028 145.595 182.187 148.309 182.187C151.023 182.187 153.734 181.028 153.734 177.712V52.1323C153.734 49.8059 151.824 47.9208 149.468 47.9208Z" fill="white"/>
            <path d="M112.119 84.2718L110.927 51.0578C110.927 49.2188 109.411 47.8125 107.57 47.8125C105.729 47.8125 104.321 49.4357 104.321 51.1663L105.512 84.0586C105.512 85.2489 105.079 86.2221 104.321 86.9795C103.563 87.7368 102.48 88.1697 101.397 88.1697C99.1224 88.1697 97.2812 86.3306 97.2812 84.0585L97.279 51.1665C97.279 49.3274 95.8713 47.9212 94.0302 47.9212C92.1891 47.9212 90.7813 49.4358 90.7813 51.1665V84.0585C90.7813 86.3305 88.9403 88.1697 86.6657 88.1697C85.4742 88.1697 84.4999 87.7368 83.7418 86.9795C82.9837 86.2221 82.5502 85.1404 82.5502 84.0586L83.7418 51.2748C83.7418 49.4357 82.3341 47.921 80.493 47.921C78.6518 47.921 77.1356 49.3271 77.1356 51.1663L75.9429 84.1636C75.9429 88.3833 75.8343 92.6027 76.5924 96.7139C77.0258 99.0944 77.8926 101.691 79.3002 103.747C80.9252 106.128 83.4159 107.318 86.1237 108.075L88.6025 108.788L84.6073 172.125C84.3912 174.722 85.3654 177.318 87.0978 179.158C88.8303 181.106 91.4307 182.188 94.0299 182.188C96.6291 182.188 99.1209 181.106 100.962 179.158C102.694 177.211 103.67 174.723 103.452 172.125L99.4583 108.788L101.936 108.075C104.644 107.318 107.027 106.128 108.76 103.747C110.167 101.691 111.034 99.203 111.467 96.7139C112.225 92.7112 112.119 88.383 112.119 84.2718Z" fill="white"/>
        </g>
    </g>
</svg>
