<svg class="fest-svg" width="230" height="290" viewBox="0 0 230 290" fill="none" xmlns="http://www.w3.org/2000/svg">
<path class="fest-svg__marker" d="M137 268C137 280.15 127.15 290 115 290C102.85 290 93 280.15 93 268C93 255.85 102.85 246 115 246C127.15 246 137 255.85 137 268Z" fill="currentColor"/>
<path class="fest-svg__marker-background" d="M196.559 197.279C217.228 176.36 230 147.534 230 115.706C230 51.8035 178.513 0 115 0C51.4873 0 0 51.8035 0 115.706C0 152.051 16.6552 184.483 42.7053 205.695L110.577 267.596C113.217 270.22 116.803 270.24 119.423 267.596L188.222 204.932C190.895 202.708 193.467 200.366 195.928 197.913L196.624 197.279H196.559Z" fill="white"/>
<path class="fest-svg__background" d="M15 115C15 59.7715 59.7715 15 115 15C170.228 15 215 59.7715 215 115C215 170.228 170.228 215 115 215C59.7715 215 15 170.228 15 115Z" fill="currentColor"/>
<path class="fest-svg__icon" d="M162.602 54.7055C162.19 53.4307 161.014 52.5474 159.675 52.5075C158.759 52.4772 144.406 52.2079 128.163 60.6039C131.07 67.4633 136.005 73.6045 142.458 78.4514C148.936 83.3169 156.234 86.3637 163.626 87.2008C167.118 69.2666 162.886 55.5751 162.602 54.7055Z" fill="white"/>
<path class="fest-svg__icon" d="M65.7247 146.378C64.9908 147.256 64.8 148.463 65.2179 149.511C65.637 150.559 66.6187 151.258 67.7595 151.343C69.0529 151.426 70.8013 151.658 72.4256 151.954C68.8126 156.613 64.1425 165.189 67.2416 175.662C67.4352 176.308 67.8288 176.836 68.3104 177.198C68.7921 177.56 69.4087 177.792 70.0839 177.797C81.0053 177.855 87.9407 170.98 91.4083 166.211C92.1437 167.69 92.8536 169.305 93.2946 170.522C93.6703 171.576 94.6349 172.301 95.7628 172.453C96.8865 172.563 97.9929 172.043 98.6303 171.093C100.803 167.899 102.047 164.588 102.754 161.489L73.8218 139.76C71.0197 141.284 68.1855 143.402 65.7247 146.378Z" fill="white"/>
<path class="fest-svg__icon" fill-rule="evenodd" clip-rule="evenodd" d="M66.7345 126.515C65.8685 125.865 65.3919 124.854 65.4991 123.784C65.6291 121.962 67.1271 105.865 73.9754 98.6572C79.9066 92.4089 91.5081 92.1468 96.1504 92.2961C98.0645 89.284 100.114 86.2977 102.325 83.3544C108.423 75.2358 115.234 69.3051 121.935 65.0168C125.496 72.3708 131.015 78.9712 138.084 84.2804C145.152 89.5887 153.055 93.0696 161.109 94.4398C158.857 102.07 155.06 110.266 148.963 118.384C146.752 121.327 144.431 124.109 142.096 126.805C143.534 131.223 146.515 142.437 142.166 149.874C137.126 158.44 122.082 164.365 120.396 165.016C119.398 165.417 118.293 165.24 117.428 164.59L66.7345 126.515ZM136.323 110.502C141.039 104.223 139.729 95.2604 133.402 90.5078C127.1 85.7746 118.127 87.0145 113.412 93.2931C108.715 99.5462 110.023 108.508 116.326 113.242C122.654 117.995 131.626 116.756 136.323 110.502Z" fill="white"/>
</svg>
