<svg class="fest-svg" viewBox="0 0 230 290" xmlns="http://www.w3.org/2000/svg">
    <g class="fest-svg__marker" transform="translate(115,268) scale(1.3,1)">
        <path fill="currentColor" d="M137,268c0,12.15-9.85,22-22,22s-22-9.85-22-22s9.85-22,22-22s22,9.85,22,22Z" transform="translate(-115,-268)"/>
    </g>
    <g class="fest-svg__marker-background" transform="translate(115.337811,268.814498)">
        <g transform="scale(0.6,0.6)">
            <path d="M196.54245,231.60471l-.696.634c-2.461,2.453-5.033,4.795-7.706,7.019l-68.799,62.664c-2.62,2.644-6.206,2.624-8.846,0l-67.8717-61.901c-29.51482-32.54165-42.7053-53.60232-42.7053-89.94732c0-63.9025,51.48715-115.74768,115-115.74768s115,49.97418,115,113.87668c0,31.828-12.772,62.48332-33.441,83.40232h.065Z" transform="translate(-115.51568,-303.233311)" fill="#fff" stroke-linejoin="bevel"/>
        </g>
    </g>
    <g class="fest-svg__background" transform="translate(115,189.975)">
        <path fill="currentColor" d="M15,115C15,59.7715,59.7715,15,115,15c55.228,0,100,44.7715,100,100c0,55.228-44.772,100-100,100-55.2285,0-100-44.772-100-100Z" transform="translate(-115,-115)"/>
    </g>
    <g class="fest-svg__icon" transform="translate(115,190.60672)">
        <g transform="translate(-115,-113.820999)">
            <path d="M162.602 54.7055C162.19 53.4307 161.014 52.5474 159.675 52.5075C158.759 52.4772 144.406 52.2079 128.163 60.6039C131.07 67.4633 136.005 73.6045 142.458 78.4514C148.936 83.3169 156.234 86.3637 163.626 87.2008C167.118 69.2666 162.886 55.5751 162.602 54.7055Z" fill="white"/>
            <path d="M65.7247 146.378C64.9908 147.256 64.8 148.463 65.2179 149.511C65.637 150.559 66.6187 151.258 67.7595 151.343C69.0529 151.426 70.8013 151.658 72.4256 151.954C68.8126 156.613 64.1425 165.189 67.2416 175.662C67.4352 176.308 67.8288 176.836 68.3104 177.198C68.7921 177.56 69.4087 177.792 70.0839 177.797C81.0053 177.855 87.9407 170.98 91.4083 166.211C92.1437 167.69 92.8536 169.305 93.2946 170.522C93.6703 171.576 94.6349 172.301 95.7628 172.453C96.8865 172.563 97.9929 172.043 98.6303 171.093C100.803 167.899 102.047 164.588 102.754 161.489L73.8218 139.76C71.0197 141.284 68.1855 143.402 65.7247 146.378Z" fill="white"/>
            <path fill-rule="evenodd" clip-rule="evenodd" d="M66.7345 126.515C65.8685 125.865 65.3919 124.854 65.4991 123.784C65.6291 121.962 67.1271 105.865 73.9754 98.6572C79.9066 92.4089 91.5081 92.1468 96.1504 92.2961C98.0645 89.284 100.114 86.2977 102.325 83.3544C108.423 75.2358 115.234 69.3051 121.935 65.0168C125.496 72.3708 131.015 78.9712 138.084 84.2804C145.152 89.5887 153.055 93.0696 161.109 94.4398C158.857 102.07 155.06 110.266 148.963 118.384C146.752 121.327 144.431 124.109 142.096 126.805C143.534 131.223 146.515 142.437 142.166 149.874C137.126 158.44 122.082 164.365 120.396 165.016C119.398 165.417 118.293 165.24 117.428 164.59L66.7345 126.515ZM136.323 110.502C141.039 104.223 139.729 95.2604 133.402 90.5078C127.1 85.7746 118.127 87.0145 113.412 93.2931C108.715 99.5462 110.023 108.508 116.326 113.242C122.654 117.995 131.626 116.756 136.323 110.502Z" fill="white"/>
        </g>
    </g>
</svg>
