<svg class="fest-svg" width="230" height="290" viewBox="0 0 230 290" fill="none" xmlns="http://www.w3.org/2000/svg">
<path class="fest-svg__marker" d="M137 268C137 280.15 127.15 290 115 290C102.85 290 93 280.15 93 268C93 255.85 102.85 246 115 246C127.15 246 137 255.85 137 268Z" fill="currentColor"/>
<path class="fest-svg__marker-background" d="M196.559 197.279C217.228 176.36 230 147.534 230 115.706C230 51.8035 178.513 0 115 0C51.4873 0 0 51.8035 0 115.706C0 152.051 16.6552 184.483 42.7053 205.695L110.577 267.596C113.217 270.22 116.803 270.24 119.423 267.596L188.222 204.932C190.895 202.708 193.467 200.366 195.928 197.913L196.624 197.279H196.559Z" fill="white"/>
<path class="fest-svg__background" d="M15 115C15 59.7715 59.7715 15 115 15C170.228 15 215 59.7715 215 115C215 170.228 170.228 215 115 215C59.7715 215 15 170.228 15 115Z" fill="currentColor"/>
<path class="fest-svg__icon" d="M106.67 47.8186C105.634 47.9217 104.672 48.4083 103.973 49.181C103.275 49.9537 102.888 50.9591 102.889 52.0011V64.593H98.6982C97.5786 64.5886 96.5034 65.032 95.7122 65.8235C94.9207 66.615 94.4773 67.6902 94.4818 68.8089V94.2631C94.4774 95.3827 94.9208 96.4569 95.7122 97.2485C96.5036 98.0411 97.5788 98.4834 98.6982 98.479H162.782C163.768 98.4745 164.72 98.1231 165.472 97.4868L180.696 84.7474C181.643 83.9492 182.188 82.7742 182.188 81.5361C182.188 80.2979 181.642 79.1228 180.694 78.3247L165.472 65.5853C164.72 64.949 163.767 64.5976 162.782 64.5932H124.375V52.0013C124.371 50.8939 123.928 49.8319 123.145 49.0482C122.361 48.2656 121.3 47.8233 120.192 47.8189H107.106C106.962 47.8111 106.817 47.8111 106.672 47.8189L106.67 47.8186ZM67.2333 106.599C66.2457 106.603 65.2902 106.954 64.5354 107.591L49.3211 120.306C48.3667 121.104 47.8125 122.285 47.8125 123.53C47.8125 124.775 48.3656 125.955 49.32 126.753L64.5343 139.493C65.2936 140.119 66.2501 140.458 67.2333 140.452H104.844V177.997C104.846 179.112 105.292 180.18 106.083 180.966C106.873 181.753 107.944 182.192 109.059 182.188H122.941C124.051 182.184 125.114 181.74 125.897 180.955C126.681 180.169 127.122 179.106 127.124 177.997V140.452H131.34C132.448 140.447 133.51 140.005 134.294 139.221C135.076 138.437 135.518 137.375 135.523 136.268V110.814C135.527 109.701 135.089 108.63 134.305 107.84C133.52 107.049 132.454 106.603 131.34 106.598L67.2333 106.599Z" fill="white"/>
</svg>
