<svg class="fest-svg" viewBox="0 0 230 290" xmlns="http://www.w3.org/2000/svg">
    <g class="fest-svg__marker" transform="translate(115,268) scale(1.3,1)">
        <path fill="currentColor" d="M137,268c0,12.15-9.85,22-22,22s-22-9.85-22-22s9.85-22,22-22s22,9.85,22,22Z" transform="translate(-115,-268)"/>
    </g>
    <g class="fest-svg__marker-background" transform="translate(115.337811,268.814498)">
        <g transform="scale(0.6,0.6)">
            <path d="M196.54245,231.60471l-.696.634c-2.461,2.453-5.033,4.795-7.706,7.019l-68.799,62.664c-2.62,2.644-6.206,2.624-8.846,0l-67.8717-61.901c-29.51482-32.54165-42.7053-53.60232-42.7053-89.94732c0-63.9025,51.48715-115.74768,115-115.74768s115,49.97418,115,113.87668c0,31.828-12.772,62.48332-33.441,83.40232h.065Z" transform="translate(-115.51568,-303.233311)" fill="#fff" stroke-linejoin="bevel"/>
        </g>
    </g>
    <g class="fest-svg__background" transform="translate(115,189.975)">
        <path fill="currentColor" d="M15,115C15,59.7715,59.7715,15,115,15c55.228,0,100,44.7715,100,100c0,55.228-44.772,100-100,100-55.2285,0-100-44.772-100-100Z" transform="translate(-115,-115)"/>
    </g>
    <g class="fest-svg__icon" transform="translate(115,190.60672)">
        <g transform="translate(-115,-113.820999)">
            <path d="M106.67 47.8186C105.634 47.9217 104.672 48.4083 103.973 49.181C103.275 49.9537 102.888 50.9591 102.889 52.0011V64.593H98.6982C97.5786 64.5886 96.5034 65.032 95.7122 65.8235C94.9207 66.615 94.4773 67.6902 94.4818 68.8089V94.2631C94.4774 95.3827 94.9208 96.4569 95.7122 97.2485C96.5036 98.0411 97.5788 98.4834 98.6982 98.479H162.782C163.768 98.4745 164.72 98.1231 165.472 97.4868L180.696 84.7474C181.643 83.9492 182.188 82.7742 182.188 81.5361C182.188 80.2979 181.642 79.1228 180.694 78.3247L165.472 65.5853C164.72 64.949 163.767 64.5976 162.782 64.5932H124.375V52.0013C124.371 50.8939 123.928 49.8319 123.145 49.0482C122.361 48.2656 121.3 47.8233 120.192 47.8189H107.106C106.962 47.8111 106.817 47.8111 106.672 47.8189L106.67 47.8186ZM67.2333 106.599C66.2457 106.603 65.2902 106.954 64.5354 107.591L49.3211 120.306C48.3667 121.104 47.8125 122.285 47.8125 123.53C47.8125 124.775 48.3656 125.955 49.32 126.753L64.5343 139.493C65.2936 140.119 66.2501 140.458 67.2333 140.452H104.844V177.997C104.846 179.112 105.292 180.18 106.083 180.966C106.873 181.753 107.944 182.192 109.059 182.188H122.941C124.051 182.184 125.114 181.74 125.897 180.955C126.681 180.169 127.122 179.106 127.124 177.997V140.452H131.34C132.448 140.447 133.51 140.005 134.294 139.221C135.076 138.437 135.518 137.375 135.523 136.268V110.814C135.527 109.701 135.089 108.63 134.305 107.84C133.52 107.049 132.454 106.603 131.34 106.598L67.2333 106.599Z" fill="white"/>
        </g>
    </g>
</svg>
