<svg class="fest-svg" xmlns="http://www.w3.org/2000/svg" viewBox="0 0 230 290">
    <g class="fest-svg__marker">
        <path fill="currentColor" d="M137,268c0,12.15-9.85,22-22,22s-22-9.85-22-22s9.85-22,22-22s22,9.85,22,22Z" transform="translate(-115,-268)"/>
    </g>
    <g class="fest-svg__marker-background">
        <g>
            <path d="M196.54245,231.60471l-.696.634c-2.461,2.453-5.033,4.795-7.706,7.019l-68.799,62.664c-2.62,2.644-6.206,2.624-8.846,0l-67.8717-61.901c-29.51482-32.54165-42.7053-53.60232-42.7053-89.94732c0-63.9025,51.48715-115.74768,115-115.74768s115,49.97418,115,113.87668c0,31.828-12.772,62.48332-33.441,83.40232h.065Z" transform="translate(-115.51568,-303.233311)" fill="#fff" stroke-linejoin="bevel"/>
        </g>
    </g>
    <g class="fest-svg__background">
        <path fill="currentColor" d="M15,115C15,59.7715,59.7715,15,115,15c55.228,0,100,44.7715,100,100c0,55.228-44.772,100-100,100-55.2285,0-100-44.772-100-100Z" transform="translate(-115,-115)"/>
    </g>
    <g class="fest-svg__icon">
        <g>
            <path d="M49.375,160.821c0-2.663,2.1584-4.821,4.8209-4.821h121.6081c2.663,0,4.821,2.158,4.821,4.821c0,2.662-2.158,4.821-4.821,4.821h-121.6081c-2.6625,0-4.8209-2.159-4.8209-4.821Z" fill="#fff"/>
            <path d="M72.8932,62.0002L61.0868,62c-1.8141,0-3.1319,1.5003-3.1319,3.167v46.783h17.8796c5.1926-7.592,23.4724-19.7602,24.9765-39.42h28.378c1.613,19.661,19.655,31.827,24.82,39.42h17.873v-46.7817c0-1.8344-1.483-3.1669-3.132-3.1669l-14.937-.0002c-.037-.0008-.074-.0012-.111-.0012h-80.7692c-.0132,0-.0264.0001-.0396.0002Z" fill="#fff"/>
            <path d="M155.892,121.94h16.32l-.002,34.132h-23.226c.554-17.884,4.156-29.643,6.908-34.132Z" fill="#fff"/>
            <path d="M74.1086,121.94h-16.32v34.132h23.2335c-.4007-17.884-4.156-29.643-6.9135-34.132Z" fill="#fff"/>
        </g>
    </g>
</svg>
